<svg width="403" height="302" viewBox="0 0 403 302" fill="none" xmlns="http://www.w3.org/2000/svg">
<path fill-rule="evenodd" clip-rule="evenodd" d="M349.973 166.439C339.932 158.031 328.247 152.236 316.809 146.043C320.966 146.764 325.555 147.33 329.616 148.49C333.35 149.562 334.874 151.906 337.757 154.455C342.902 159.01 348.566 164.304 352.788 168.876C351.863 168.049 350.924 167.237 349.973 166.439ZM331.645 164.297C319.945 156.741 307.185 150.913 295.548 143.256C299.078 143.581 301.198 143.472 304.402 145.156C309.164 147.655 313.762 150.725 318.163 153.786C324.549 158.23 330.947 162.822 336.884 167.846C335.163 166.626 333.417 165.442 331.645 164.297ZM331.241 167.02C330.231 167.015 327.678 164.582 326.783 163.967C327.655 164.535 330.595 167.017 331.241 167.02ZM306.123 156.427C296.463 151.744 286.558 147.324 276.605 143.308C278.661 143.372 280.706 143.234 282.762 143.166C288.384 142.984 289.071 143.66 293.239 147.002C298.615 151.313 304.46 154.908 310.302 158.522C308.921 157.8 307.528 157.102 306.123 156.427ZM292.212 157.404C278.1 152.836 263.921 148.964 249.631 144.898C253.03 144.914 256.449 144.564 259.829 144.258C265.045 143.787 268.218 145.455 273.013 147.417C278.107 149.5 282.864 152.147 287.691 154.796C288.882 155.451 293.609 157.856 292.212 157.404ZM275.384 138.367C285.598 134.264 296.689 131.086 307.541 129.077C314.429 127.802 321.98 126.268 327.138 131.933C316.364 128.035 298.589 131.974 288.945 137.64C288.485 137.907 287.915 137.988 287.443 138.243C285.682 139.19 286.9 139.871 285.738 140.421C285.603 140.487 280.607 140.481 281.271 140.48C277.877 140.489 274.494 140.277 271.102 140.267C272.52 139.61 273.945 138.975 275.384 138.367ZM323.109 138.063C313.452 141.132 304.338 141.137 294.439 140.606C304.435 138.759 314.072 137.847 324.261 137.766C323.876 137.864 323.493 137.962 323.109 138.063ZM331.214 143.792C332.91 143.926 333.528 144.325 333.132 146.241C329.318 144.508 327.261 144.285 323.236 143.674C325.895 143.529 328.561 143.568 331.214 143.792ZM335.57 146.711C335.5 146.112 335.767 145.131 335.774 144.578C338.67 145.709 340.863 147.317 342.689 149.827C341.877 149.502 335.404 147.685 335.57 146.711ZM191.594 165.704C213.683 171.72 234.127 179.302 254.4 190.009C237.919 184.888 220.635 181.541 203.709 178.232C190.119 175.576 176.823 171.701 163.296 168.79C166.628 167.315 169.866 165.635 173.227 164.214C179.063 161.746 185.364 164.017 191.594 165.704ZM261.343 201.506C265.299 202.672 269.279 203.752 273.281 204.745C277.633 205.82 285.287 205.796 289.083 208.303C263.795 205.761 238.168 198.866 213.445 193.144C203.169 190.766 192.422 189.04 181.898 188.126C166.704 186.803 151.514 180.557 136.239 181.184C141.861 178.673 148.583 174.543 154.437 173.026C158.692 171.923 164.177 173.932 168.261 175.008C174.984 176.779 181.663 178.751 188.34 180.683C212.65 187.711 237.055 194.401 261.343 201.506ZM134.297 175.535C131.552 176.842 128.84 178.215 126.162 179.652C135.648 165.751 142.082 149.629 150.245 134.915C154.861 126.596 159.453 118.153 164.402 110.037C168.774 102.872 173.382 92.5568 180.207 87.6154C182.108 91.7227 183.138 95.6769 180.831 99.5701C177.865 104.577 173.472 108.757 170.24 113.606C166.608 119.054 163.319 124.767 160.114 130.476C155.186 139.257 151.066 148.555 147.746 158.054C146.807 160.722 145.905 163.402 145.04 166.095C144.663 167.271 144.458 169.452 143.771 170.414C142.085 172.779 137.173 174.154 134.297 175.535ZM182.948 121.405C188.256 113.585 193.429 104.091 200.464 97.6036C204.371 93.9979 207.022 93.2305 208.158 99.32C208.97 103.665 202.394 109.781 199.525 113.651C191.389 124.631 184.593 136.533 177.426 148.152C175.55 151.197 174.067 154.36 172.38 157.488C170.98 160.079 171.121 159.949 168.724 161.35C167.18 162.257 165.138 162.729 163.454 163.389C159.038 165.122 154.595 166.797 150.199 168.578C161.978 153.442 172.196 137.26 182.948 121.405ZM402.088 256.567C400.77 251.53 398.521 246.554 395.983 242.04C392.47 235.782 387.086 230.759 383.515 224.661C380.513 219.53 378.723 213.606 375.643 208.394C370.747 200.118 365.273 192.661 358.286 186.031C367.389 193.977 375.757 202.481 381.164 213.446C381.62 214.374 384.573 224.867 386.169 224.634C387.259 224.481 385.89 217.201 385.662 215.543C383.971 203.343 374.798 192.223 368.101 182.09C360.538 170.647 350.724 161.945 340.39 153.096C351.005 158.145 359.011 164.681 365.604 174.517C368.849 179.354 371.551 184.558 375.021 189.236C378.096 193.384 381.09 197.273 383.259 202.036C385.687 207.375 387.202 212.727 387.879 218.553C388.132 220.744 388.513 233.536 391.458 226.716C392.91 223.356 390.61 216.777 389.881 213.621C388.65 208.302 386.785 203.202 384.712 198.159C381.183 189.588 378.023 180.897 372.839 173.152C369.892 168.745 366.518 164.829 362.503 161.356C359.403 158.674 356.067 156.293 352.469 154.32C349.051 152.447 348.689 152.348 346.595 149.329C344.797 146.733 343.404 144.173 341.128 141.914C338.808 139.611 336.498 138.471 335.067 136.04C333.38 133.167 333.327 130.586 330.642 128.12C328.173 125.852 325.1 124.869 321.965 123.869C311.6 120.556 300.366 118.927 289.629 121.463C280.14 123.704 271.719 130.036 264.827 136.749C261.022 140.452 262.42 140.828 256.099 141.263C249.452 141.722 242.857 142.145 236.231 142.98C249.62 135.587 262.335 126.537 276.295 120.186C283.757 116.797 291.156 113.276 298.615 109.889C300.816 108.892 317.737 102.148 310.757 99.7739C309.144 99.2241 305.913 100.358 304.183 100.457C300.727 100.66 297.356 100.714 293.945 101.432C288.031 102.676 282.653 105.036 277.205 107.549C263.09 114.059 249.643 121.698 239.459 133.666C237.048 136.498 235.146 140.024 232.238 142.337C230.189 143.97 228.501 144.133 225.46 144.714C220.247 145.705 215.118 146.818 209.993 148.215C226.009 137.534 239.208 123.646 253.575 110.966C272.05 94.6645 286.069 73.6186 303.218 55.9808C306.544 52.5596 310.398 48.8746 314.592 46.5209C315.868 45.8051 319.178 45.3048 319.958 44.0629C322.016 40.7872 319.239 40.7555 317.07 41.0515C311.754 41.7753 305.284 45.6701 300.8 48.2448C294.274 51.9886 287.503 56.1759 281.375 60.5794C260.266 75.7444 242.33 95.4193 225.924 115.444C218.208 124.855 210.317 134.403 204.117 144.901C201.125 149.971 201.957 150.48 195.941 152.325C189.658 154.253 183.488 156.501 177.227 158.483C185.057 151.492 192.028 141.7 198.891 133.693C206.08 125.304 213.651 117.242 220.886 108.889C232.656 95.2954 243.245 80.7784 253.697 66.1658C259.251 58.3957 264.681 50.5666 269.971 42.617C276.768 32.4015 284.309 20.4794 293.505 12.2547C294.875 11.0323 300.805 5.17482 295.429 5.82676C292.967 6.12301 287.596 12.4619 285.766 14.0143C275.383 22.8362 265.843 32.2042 256.637 42.2399C240.316 60.0357 226.09 79.2954 211.181 98.223C209.832 92.786 205.357 85.5772 199.132 85.106C193.541 84.6836 188.235 90.7155 184.879 94.4813C185.954 91.3649 184.545 84.1549 181.711 82.7675C180.102 81.9787 176.607 82.3782 174.955 82.4661C170.871 82.6821 166.146 83.1365 162.707 85.4463C155.658 90.1868 152.288 100.778 148.415 108.02C136.865 129.617 128.363 151.556 121.714 175.053C120.191 180.429 119.919 183.101 115.337 185.953C110.103 189.213 105.02 192.443 99.9535 195.44C101.834 193.861 103.398 187.321 104.265 185.171C106.585 179.411 108.978 173.737 111.628 168.117C117.084 156.542 121.456 144.059 125.708 131.981C134.468 107.098 144.44 83.0721 155.247 59.0341C157.523 53.9676 159.499 48.8156 161.57 43.669C162.425 41.5441 165.253 36.6392 161.378 36.5016C160.253 36.4612 157.981 39.9573 157.303 40.8025C151.051 48.591 146.3 57.8413 141.371 66.4512C136.888 74.2831 132.495 82.1663 128.395 90.2024C120.52 105.64 114.601 121.339 108.125 137.381C102.791 150.596 98.3477 165.519 95.802 178.684C94.6079 184.858 94.0694 191.837 92.2927 197.824C91.2253 201.431 88.6731 201.884 85.0583 204.075C81.4008 206.291 77.7623 208.542 74.1811 210.878C76.4416 205.977 77.1328 200.235 78.8444 195.105C80.2732 190.82 81.7085 186.56 83.0397 182.239C84.0853 178.835 85.1492 175.436 86.2039 172.032C91.6302 154.513 97.0764 137.045 101.171 119.162C107.455 91.6988 113.645 63.3646 124.535 37.2679C126.615 32.2879 128.821 27.3634 130.925 22.3919C132.509 18.6443 133.693 14.7674 135.211 10.9986C135.985 9.07645 138.378 5.72658 138.521 3.55408C138.935 -2.73202 134.802 2.7885 133.71 5.30616C133.136 6.63312 132.51 7.93403 131.942 9.26269C128.377 17.6136 124.259 25.6038 120.407 33.8259C114.855 45.6827 110.455 57.9405 105.902 70.1992C100.944 83.5542 95.181 96.6839 91.2204 110.39C86.1164 128.058 82.884 146.377 78.2676 164.191C76.2562 171.949 74.6727 179.788 72.4045 187.48C70.2832 194.669 69.9536 202.455 68.8341 209.441L69.026 208.949C68.4943 211.895 68.8466 213.621 67.0049 215.769C65.7089 217.278 63.3643 218.462 61.7533 219.676C58.3211 222.255 54.9545 224.908 51.5845 227.567C56.912 219.496 59.1034 207.457 60.7787 198.072C62.6349 187.688 64.1367 176.889 65.0202 166.383C65.7072 158.213 66.7367 150.327 69.1348 142.512C72.3283 132.104 73.552 121.338 76.1569 110.797C78.617 100.845 80.0928 90.5973 81.9117 80.4936C82.3208 78.2191 84.4212 67.3974 79.3234 70.5786C78.0658 71.3644 77.8368 74.723 77.4913 75.9253C76.6331 78.902 75.6769 81.7859 74.6329 84.6992C68.0207 103.205 64.2711 123.205 59.9213 142.325C57.1423 154.541 54.4589 166.845 52.633 179.241C51.2119 188.892 48.6534 198.477 47.5195 208.103C46.9756 212.72 46.4121 217.436 46.6618 222.083C46.8786 226.126 48.108 227.735 46.0473 231.152C43.0999 236.038 36.4391 239.635 32.3654 243.865C29.0342 247.324 25.6679 250.775 22.4023 254.294C17.8336 259.227 13.3601 264.317 9.02163 269.451C6.50656 272.423 2.53885 275.964 0.908999 279.368C-1.56739 284.536 2.04996 284.25 5.07469 281.353C7.10991 279.402 9.00534 277.185 10.9941 275.169C25.5749 260.404 40.0645 244.104 57.5016 232.638C64.7783 227.848 78.0148 231.397 86.346 232.101C106.391 233.786 125.901 240.917 145.16 246.422C160.69 250.863 175.923 255.338 191.964 257.642C194.306 257.98 237.748 262.446 237.591 260.058C237.676 261.397 190.806 253.361 187.25 252.234C176.103 248.694 165.253 244.525 154.255 240.554C126.745 230.622 99.8804 220.376 70.0757 223.088C75.1739 219.481 82.654 211.794 88.8701 212.136C100.853 212.789 112.872 214.964 124.896 215.739C137.392 216.551 149.687 218.701 162.137 219.81C174.574 220.916 187.036 221.891 199.418 223.609C211.864 225.337 224.732 227.095 236.284 232.26C240.73 234.249 245.084 236.499 249.396 238.761C251.024 239.614 263.487 247.63 257.464 241.547C253.565 237.606 247.447 234.919 242.691 232.111C237.236 228.894 231.982 225.868 226.101 223.513C213.296 218.383 199.248 216.123 185.697 214.031C169.48 211.523 152.668 208.741 136.237 208.666C121.179 208.599 106.14 208.295 91.107 208.162C94.9293 205.529 98.8568 203.064 102.748 200.533C104.639 199.301 107.033 197.026 109.199 196.543C112.506 195.805 118.109 197.556 121.505 197.785C135.163 198.712 149.161 198.964 162.697 201.037C184.461 204.368 205.953 209.707 227.625 213.615C240.271 215.898 253.484 218.754 265.29 223.836C269.729 225.75 274.276 227.422 278.281 230.166C279.698 231.135 281.302 232.797 282.828 233.634C287.396 236.132 284.787 232.374 282.295 230.178C262.538 212.776 234.551 208.753 210.016 202.491C193.79 198.347 177.744 194.325 160.927 193.603C145.433 192.935 129.868 194.133 114.392 192.78C120.084 189.142 125.46 185.161 132.36 184.703C139.995 184.198 147.254 185.592 154.679 187.256C170.12 190.709 185.746 193.434 201.103 197.223C215.209 200.707 229.201 204.402 243.485 207.121C257.395 209.765 270.783 213.465 285.061 213.543C289.581 213.567 295.396 212.782 299.635 214.242C305.129 216.135 310.971 220.406 315.909 223.36C327.937 230.551 340.427 238.001 350.057 248.284C359.505 258.375 363.974 269.981 369.292 282.378C370.966 286.289 372.576 290.227 374.239 294.141C374.609 295.014 376.427 301.171 377.169 301.543C381.766 303.841 376.671 290.779 375.916 288.221C370.7 270.544 363.703 254.717 350.981 241.039C340.139 229.381 327.804 219.634 314.063 211.602C315.18 208.982 325.978 213.252 327.391 210.642C329.273 207.159 320.262 207.724 318.588 207.562C315.41 207.252 312.223 207.187 309.05 206.827C301.765 205.997 295.473 200.765 289.188 197.197C281.611 192.899 273.783 188.911 265.939 185.132C239.973 172.621 214.067 163.041 185.286 159.582C191.591 157.419 198.014 155.539 204.451 153.808C206.956 153.134 208.958 152.397 211.401 152.6C215.528 152.942 219.655 155.235 223.617 156.423C239.276 161.122 254.941 165.611 270.272 171.349C295.503 180.791 319.65 195.905 340.035 213.506C349.979 222.094 359.749 230.486 366.844 241.704C368.488 244.298 369.775 247.031 371.102 249.795C371.651 250.937 374.626 258.831 374.908 258.911C377.315 259.61 371.469 243.4 370.535 241.252C357.969 212.407 332.769 196.697 306.775 181.291C279.595 165.18 249.632 155.55 218.5 150.306C225.645 149.087 233.731 145.293 240.965 145.845C246.461 146.263 252.498 149.084 257.614 150.593C272.453 154.961 286.36 163.562 300.217 170.418C315.871 178.162 330.683 186.644 344.511 197.323C351.586 202.788 358.399 208.295 365.011 214.336C370.25 219.124 374.711 222.577 378.008 228.754C379.331 231.261 383.489 238.181 385.485 242.545C386.298 244.328 386.593 247.509 387.832 248.744C392.444 253.344 388.773 241.255 388.206 239.184C391.546 243.638 394.421 248.388 397.013 253.253C397.525 254.218 398.066 255.015 398.611 255.927C399.249 257 398.902 259.226 400.759 259.197C402.273 259.171 402.36 257.658 402.088 256.567Z" fill="#012A32"/>
</svg>
