<svg width="317" height="269" viewBox="0 0 317 269" fill="none" xmlns="http://www.w3.org/2000/svg">
<path fill-rule="evenodd" clip-rule="evenodd" d="M235.284 134.524C237.976 134.848 240.387 137.878 242.121 139.702C237.515 135.68 229.517 134.77 223.841 133.211C218.319 131.694 212.888 129.785 207.679 127.378C207.565 127.327 196.034 121.829 200.404 120.092C212.499 115.223 224.315 133.676 235.284 134.524ZM163.731 72.5229C165.179 77.9946 171.276 104.661 161.92 105.3C154.474 105.808 150.248 89.5135 150.526 84.2866C150.996 75.5849 152.5 67.0356 152.411 58.2734C156.963 62.7998 162.019 65.9578 163.731 72.5229ZM54.7548 218.494C50.719 222.344 46.6463 226.185 42.3392 229.729C46.953 225.314 51.3867 220.85 56.4393 216.931L54.7538 218.494L54.7548 218.494ZM314.293 50.2008C312.702 47.4925 304.855 49.5366 302.658 49.7437C296.63 50.3086 290.139 50.6646 285.084 47.6556C280.641 45.9081 289.104 38.9042 290.661 36.0078C291.753 33.9772 294.155 28.7817 293.022 26.4212C290.593 21.3642 283.541 26.0126 280.103 27.7595C275.068 30.3191 272.889 32.1159 274.438 26.4241C276.104 20.3063 283.989 10.6574 278.096 4.28602C273.076 -1.14016 263.179 6.65346 259.317 9.79932C252.035 15.7219 248.073 22.974 245.532 31.8867C244.938 33.9644 240.865 46.1785 238.997 43.6924C235.413 37.6145 239.862 29.9455 237.238 23.5557C235.745 19.9242 233.306 17.9044 232.176 13.8893C231.06 9.92535 230.312 2.98048 225.186 1.90348C221.931 1.22117 219.408 3.66064 218.515 6.30232C215.971 12.4387 216.527 18.3316 215.584 24.757C214.892 29.4584 211.338 32.6012 211.863 37.5982C212.764 45.2278 214.185 53.2907 214.444 61.1482C214.525 63.6111 214.438 74.7646 209.992 72.0073C207.488 70.455 209.09 60.2148 209.143 58.3856C209.266 54.0145 209.887 49.7165 207.772 45.6433C206.56 43.3083 204.197 42.1647 203.265 40.3343C200.512 34.9224 201.831 26.5219 199.733 20.6973C197.85 15.4708 192.72 2.72783 187.018 0.809431C179.21 -1.81804 180.816 9.4791 180.721 14.3302C180.617 19.7011 180.883 24.6465 179.746 29.753C178.745 34.2615 178.594 38.0006 179.77 42.6578C181.943 51.2622 185.898 58.9521 189.019 66.9386C189.014 66.9092 189.008 66.8801 189 66.8515C190.727 71.5261 191.934 77.2013 191.066 82.2365C189.611 90.6771 187.231 85.9763 185.399 79.8674C182.633 70.6574 181.299 61.0186 178.58 51.8159C177.612 48.5376 176.376 45.1777 173.782 42.787C172.042 41.1835 169.629 41.2063 168.248 40.1929C163.441 36.6745 148.561 1.92099 139.318 10.5135C134.327 15.1529 143.617 27.6491 145.376 31.829C148.185 38.505 151.464 43.2844 150.146 50.6071C148.298 48.3851 145.279 49.0289 143.559 47.2315C141.516 45.0932 141.382 41.1005 140.644 38.4055C138.615 30.9967 136.052 23.6285 132.241 16.9703C120.609 -3.34563 119.354 24.933 119.549 34.3508C119.587 36.1575 119.606 38.461 119.622 40.5146C119.655 45.8994 118.313 46.5997 116.951 51.18C114.637 58.9733 122.664 70.6858 126.776 77.014C128.043 78.9685 147.411 110.519 137.333 108.974C132.251 108.195 125.53 92.5931 123.726 87.8369C120.952 80.5234 120.205 66.5304 113.068 62.0007C110.826 60.5779 108.705 61.4953 106.608 60.3304C101.707 57.6153 99.2477 49.077 96.001 44.8107C89.393 36.1284 79.9134 35.9917 84.6601 49.3061C86.5399 54.5746 87.363 58.0348 88.2145 63.6147C89.1868 69.9802 94.32 73.8585 96.1762 79.5647C97.7095 84.2811 94.7369 81.4801 94.2436 86.7936C93.8358 91.2059 100.027 96.8903 102.917 99.7478C106.932 103.716 125.535 117.68 120.714 124.033C116.319 129.824 105.835 118.883 103.077 115.611C96.1764 107.425 94.3059 97.3372 91.1034 87.4766C89.5428 82.6701 87.797 76.8556 84.7589 72.7356C82.0946 69.1257 78.6472 68.2333 75.0461 66.0802C70.8528 63.5744 52.6012 50.7429 51.8957 63.3091C51.4217 71.7519 62.5517 77.3075 62.977 85.48C58.0369 82.4677 48.4367 70.4325 41.4697 75.2073C34.744 79.8178 45.2057 92.9962 48.282 97.8642C50.1703 100.849 63.9145 114.962 63.0692 119.477C62.1858 124.19 56.9107 121.779 53.8173 120.739C48.5262 118.962 1.44956 100.712 0.385596 110.649C-0.441892 118.355 18.5909 118.17 20.4436 122.839C21.125 124.555 19.0909 125.086 18.5279 126.751C16.4667 132.854 18.2197 135.625 24.7091 137.161C16.528 151.326 38.2369 146.054 45.4985 144.564C50.445 143.549 71.5494 138.783 71.6382 149.075C71.6682 152.535 65.2847 157.155 63.8851 160.355C61.1871 166.529 65.3905 171.076 71.8604 169.705C76.3118 168.764 80.6671 165.493 83.8507 162.352C85.6803 160.551 89.3073 154.312 91.9861 154.193C90.3221 165.019 97.382 160.223 103.763 156.302C108.536 153.37 120.528 145.271 126.465 149.875C120.533 156.206 112.942 160.877 106.597 166.758C99.6512 173.202 92.5222 179.136 84.7051 185.065C69.8806 196.304 54.8753 208.705 41.4553 221.512C34.8908 227.776 27.8999 233.649 20.9739 239.508C18.474 241.62 3.33571 250.59 7.59018 255.578C13.3457 262.325 27.5445 241.458 32.5311 239.475C57.899 217.174 84.5564 196.334 109.307 173.463C108.051 176.241 107.964 184.523 112.355 184.949C111.017 187.193 107.458 190.416 107.825 193.231C108.64 199.458 111.777 194.348 113.99 194.992C117.772 196.096 113.704 202.646 112.623 205.389C107.583 218.175 105.092 232.535 102.476 246.019C101.043 253.418 104.647 274.877 116.379 267.407C122.237 263.68 124.21 252.709 125.344 246.57C126.062 242.698 125.68 231.64 128.822 228.616C132.995 231.562 136.994 242.908 139.378 247.094C144.415 255.947 149.072 261.763 159.546 263.817C184.43 268.698 157.72 236.269 160.996 234.751C163.3 233.684 176.393 247.977 178.146 249.709C182.029 253.546 194.117 263.246 199.801 257.154C204.569 252.044 195.453 241.28 192.855 237.256C190.676 233.881 189.293 229.468 186.47 225.989C184.147 223.126 180.785 221.232 178.472 218.493C176.066 215.646 176.372 212.034 173.699 208.786C170.702 205.137 166.409 201.859 163.03 198.453C157.383 192.763 149.32 185.273 149.729 176.323C163.839 179.956 171.615 196.834 180.235 207.171C184.546 212.341 189.559 218.907 196.851 218.278C199.78 218.025 196.802 217.076 200.65 217.305C201.513 217.357 202.607 218.007 203.411 218.308C209.176 220.476 214.59 223.379 220.285 225.692C223.817 227.127 234.995 232.923 238.728 229.829C245.496 224.216 221.904 204.869 217.827 200.729C214.742 197.599 210.909 194.768 208.03 191.559C205.388 188.616 204.829 185.071 201.074 182.67C196.212 179.56 190.302 177.945 185.141 175.416C178.2 172.013 172.623 167.617 167.18 162.19C164.926 159.942 159.386 155.017 161.149 151.704C163.986 146.383 172.591 154.762 175.093 156.642C182.501 162.213 189.048 170.413 198.548 174.673C208.375 179.084 212.329 189.811 221.164 195.526C224.356 197.59 226.25 197.992 229.922 197.794C234.007 197.578 235.958 197.359 240.492 199.157C244.601 200.787 264.241 210.096 263.917 200.332C263.812 197.164 259.481 195.303 257.365 193.742C252.705 190.296 248.227 186.583 243.484 183.253C240.472 181.138 236.517 179.437 234.211 176.463C232.025 173.642 231.793 171.03 228.394 168.938C223.818 166.12 216.466 165.529 212.594 162.018C208.899 158.672 206.215 154.202 201.904 150.996C198.473 148.447 178.52 137.982 179.541 134.592C181.612 127.702 203.474 144.206 205.164 145.429C215.934 153.219 226.209 163.08 237.334 170.545C241.073 173.052 244.27 172.712 247.882 173.728C252.68 175.078 257.356 179.097 262.172 180.902C266.011 182.341 276.051 186.1 274.921 178.946C274.107 173.776 265.19 168.26 261.619 164.733C257.581 160.749 253.888 156.522 249.411 153.015C248.448 152.259 246.251 151.179 245.597 150.223C243.791 147.572 245.658 144.132 243.461 141.129C245.799 144.039 248.259 145.71 251.877 146.213C252.82 146.347 254.772 145.569 255.978 145.574C259.617 145.589 263.68 147.335 267.214 148.205C272.179 149.42 297.659 151.977 285.732 141.388C280.634 136.862 274.721 133.166 268.825 129.811C264.194 127.173 257.978 124.874 254.292 120.974C250.471 116.931 249.92 115.028 243.83 113.304C237.571 111.532 228.544 110.556 224.122 105.305C215.115 94.6036 248.336 105.297 251.837 106.679C258.91 109.469 266.628 111.938 274.316 111.252C282.888 110.488 290.303 107.428 299.12 108.16C303.052 108.489 315.807 110.544 316.394 104.235C316.974 98.0221 302.703 95.7608 299.001 94.5079C295.176 93.2141 290.747 92.3694 287.122 90.7321C283.832 89.2437 281.503 86.6967 278.332 84.9772C269.343 80.0979 260.702 83.7245 251.325 82.0679C246.374 81.193 244.253 78.9272 249.918 76.0427C252.975 74.4823 257.51 74.8858 260.941 74.3825C266.103 73.6272 271.237 72.4768 276.363 71.4964C283.28 70.1703 322.046 63.3002 314.293 50.2008Z" fill="#89B99A"/>
</svg>
